# xmcd
#
# Track frame offsets:
#	150
#	10269
#	27351
#	37503
#	52964
#	63642
#	72278
#	86448
#	95761
#	108001
#	128128
#	140177
#	151546
#	166844
#	194083
#
# Disc length: 2747 seconds
#
# Revision: 0
# Processed by: cddbd v1.5.2PL0 Copyright (c) Steve Scherf et al.
# Submitted via: audiograbber 1.82.02
#
DISCID=bf0ab90f
DTITLE=Howling Willie Cunt - World Of Filth
DYEAR=2006
DGENRE=Country
TTITLE0=5,000,000 Million Ways To Kill Your Baby
TTITLE1=Your Heart Belongs To Jesus, But Your Ass Belongs To Me
TTITLE2=A Lil' Bit 'O Gravy
TTITLE3=Say It With Herpes
TTITLE4=Darling In The Garden
TTITLE5=Homosexual Punchbag In A Wheelchair
TTITLE6=Nine Coloured Spastics On A Meat Hook
TTITLE7=Caffine Bomb
TTITLE8=Cunts On Roads
TTITLE9=I'd Rather Have A Dick In My Ass Than Have You In My Heart
TTITLE10=White Guys
TTITLE11=The Hand Of A Child
TTITLE12=Columbian Lineman
TTITLE13=Country Boy
TTITLE14=Goin' Home To Satan
EXTD=
EXTT0=
EXTT1=
EXTT2=
EXTT3=
EXTT4=
EXTT5=
EXTT6=
EXTT7=
EXTT8=
EXTT9=
EXTT10=
EXTT11=
EXTT12=
EXTT13=
EXTT14=
PLAYORDER=
